<svg id="Layer_1" data-name="Layer 1" xmlns="http://www.w3.org/2000/svg" viewBox="0 0 62.94 11.12"><defs><style>.cls-1{fill:#231f20;}.cls-2{fill:#9d9fa2;}</style></defs><title>Artboard 1</title><path class="cls-1" d="M5.17,5.66h-3L2,6.16a5.11,5.11,0,0,0-.46,1.43.64.64,0,0,0,.24.54,1,1,0,0,0,.62.18v.27H0V8.32a1.27,1.27,0,0,0,.79-.37,4.56,4.56,0,0,0,.62-1.22q0-.09.28-.68L4,.53h.23L6.88,6.84l.36.83a1.11,1.11,0,0,0,.33.44,1.21,1.21,0,0,0,.62.2v.27H5.07V8.32a2.33,2.33,0,0,0,.78-.08.33.33,0,0,0,.2-.34,3.41,3.41,0,0,0-.27-.77Zm-.1-.26L3.67,2,2.27,5.4Z"/><path class="cls-1" d="M15.37,5.61h.25V8.39h-.25A2.13,2.13,0,0,0,15,7.55a3.42,3.42,0,0,1-2.68,1.18A3.82,3.82,0,0,1,9.5,7.65,3.89,3.89,0,0,1,8.4,4.76a5,5,0,0,1,.5-2.22A3.41,3.41,0,0,1,10.31,1a4,4,0,0,1,2-.5,3.52,3.52,0,0,1,1.61.37A3.24,3.24,0,0,1,15,1.68a2.9,2.9,0,0,0,.3-1h.26l.07,3h-.25a3.41,3.41,0,0,0-1.08-2.23A2.92,2.92,0,0,0,12.46.8a2.33,2.33,0,0,0-2,1,4.89,4.89,0,0,0-.74,2.9,4.14,4.14,0,0,0,.8,2.74,2.51,2.51,0,0,0,2,1,3.09,3.09,0,0,0,1.31-.31A2.28,2.28,0,0,0,14.91,7,4,4,0,0,0,15.37,5.61Z"/><path class="cls-1" d="M22,7.22,24.87.64h2.44V.91H27a1.94,1.94,0,0,0-.77.1.51.51,0,0,0-.24.36,7.46,7.46,0,0,0-.06,1.25v3.9a9.83,9.83,0,0,0,0,1.23.63.63,0,0,0,.24.43,1.32,1.32,0,0,0,.73.14h.35v.27h-3.8V8.32h.28a1.36,1.36,0,0,0,.7-.13.6.6,0,0,0,.25-.4,8.5,8.5,0,0,0,.06-1.27V1.46L21.66,8.59h-.28L18.21,1.46V6.12a9.34,9.34,0,0,0,.06,1.3,1,1,0,0,0,.36.61,1.42,1.42,0,0,0,.86.3v.27H16.65V8.32A1.45,1.45,0,0,0,17.48,8a1,1,0,0,0,.39-.61,8.43,8.43,0,0,0,.07-1.35V2.63a8.08,8.08,0,0,0-.06-1.22A.54.54,0,0,0,17.65,1a1.83,1.83,0,0,0-.78-.11h-.22V.64h2.42Z"/><path class="cls-1" d="M34.39,6.12h.28L34.5,8.59H27.92V8.32h.16a1.23,1.23,0,0,0,.76-.16.71.71,0,0,0,.22-.4,9.29,9.29,0,0,0,0-1.24V2.63a8.84,8.84,0,0,0,0-1.2.56.56,0,0,0-.23-.4,1.61,1.61,0,0,0-.75-.11V.64h5.68l.19,2h-.28a3.1,3.1,0,0,0-.46-1.18A1.16,1.16,0,0,0,32.57,1,5.68,5.68,0,0,0,31.36.91h-1.1V4.25h.84a2.29,2.29,0,0,0,.81-.1.52.52,0,0,0,.3-.3,2.74,2.74,0,0,0,.07-.79h.28V5.78h-.28a2.32,2.32,0,0,0-.11-.89.54.54,0,0,0-.33-.29,2.7,2.7,0,0,0-.72-.07h-.87V6.41a4.07,4.07,0,0,0,.18,1.66q.18.25,1,.25H32a2.81,2.81,0,0,0,1-.16,1.85,1.85,0,0,0,.77-.66A3.87,3.87,0,0,0,34.39,6.12Z"/><path class="cls-2" d="M38.9,8.59V0h1.65V8.59Z"/><path class="cls-2" d="M41.85,5.39a3.37,3.37,0,0,1,.4-1.59A2.78,2.78,0,0,1,43.4,2.63a3.4,3.4,0,0,1,1.66-.4,3.11,3.11,0,0,1,2.31.92,3.17,3.17,0,0,1,.9,2.32,3.21,3.21,0,0,1-.91,2.34,3.08,3.08,0,0,1-2.29.93,3.61,3.61,0,0,1-1.63-.39,2.65,2.65,0,0,1-1.18-1.13A3.78,3.78,0,0,1,41.85,5.39Zm1.69.09A2.06,2.06,0,0,0,44,6.9a1.44,1.44,0,0,0,2.17,0,2.09,2.09,0,0,0,.44-1.43,2.05,2.05,0,0,0-.44-1.41,1.44,1.44,0,0,0-2.17,0A2.06,2.06,0,0,0,43.54,5.48Z"/><path class="cls-2" d="M49.41,9l1.88.23a.64.64,0,0,0,.22.45,1.24,1.24,0,0,0,.74.18,1.92,1.92,0,0,0,1-.19.8.8,0,0,0,.33-.42,2.5,2.5,0,0,0,.08-.76V7.58a2.23,2.23,0,0,1-1.86,1,2.29,2.29,0,0,1-2-1.06,3.6,3.6,0,0,1-.57-2.09,3.43,3.43,0,0,1,.75-2.39,2.43,2.43,0,0,1,1.87-.83,2.28,2.28,0,0,1,1.9,1V2.37h1.54V8a5.56,5.56,0,0,1-.18,1.65,2,2,0,0,1-.51.86,2.26,2.26,0,0,1-.88.49,4.61,4.61,0,0,1-1.39.18,3.59,3.59,0,0,1-2.24-.54,1.7,1.7,0,0,1-.66-1.37Q49.41,9.12,49.41,9Zm1.47-3.65a2.24,2.24,0,0,0,.38,1.45,1.19,1.19,0,0,0,.95.46,1.31,1.31,0,0,0,1-.47,2.06,2.06,0,0,0,.42-1.4A2.18,2.18,0,0,0,53.25,4a1.27,1.27,0,0,0-1-.47,1.22,1.22,0,0,0-1,.46A2.16,2.16,0,0,0,50.88,5.35Z"/><path class="cls-2" d="M56.51,5.39a3.37,3.37,0,0,1,.4-1.59,2.78,2.78,0,0,1,1.15-1.17,3.4,3.4,0,0,1,1.66-.4A3.11,3.11,0,0,1,62,3.14a3.17,3.17,0,0,1,.9,2.32A3.21,3.21,0,0,1,62,7.8a3.08,3.08,0,0,1-2.29.93,3.61,3.61,0,0,1-1.63-.39,2.65,2.65,0,0,1-1.18-1.13A3.78,3.78,0,0,1,56.51,5.39Zm1.69.09a2.06,2.06,0,0,0,.44,1.42,1.44,1.44,0,0,0,2.17,0,2.09,2.09,0,0,0,.44-1.43,2.05,2.05,0,0,0-.44-1.41,1.44,1.44,0,0,0-2.17,0A2.06,2.06,0,0,0,58.2,5.48Z"/></svg>